Coordinates
version=1
nRows=10
nColumns=40
inDegrees=yes

Units are S.I. units (second, meters, Newtons, ...)
Angles are in degrees.

endheader
time	pelvis_tilt	pelvis_list	pelvis_rotation	pelvis_tx	pelvis_ty	pelvis_tz	hip_flexion_r	hip_adduction_r	hip_rotation_r	knee_angle_r	knee_angle_r_beta	ankle_angle_r	subtalar_angle_r	mtp_angle_r	hip_flexion_l	hip_adduction_l	hip_rotation_l	knee_angle_l	knee_angle_l_beta	ankle_angle_l	subtalar_angle_l	mtp_angle_l	lumbar_extension	lumbar_bending	lumbar_rotation	arm_flex_r	arm_add_r	arm_rot_r	elbow_flex_r	pro_sup_r	wrist_flex_r	wrist_dev_r	arm_flex_l	arm_add_l	arm_rot_l	elbow_flex_l	pro_sup_l	wrist_flex_l	wrist_dev_l
     57.89750000	     -3.97699469	     -4.30573100	     -2.64217830	      0.99058347	      0.93707126	      0.38897667	     33.43829480	     -3.40069634	     -6.10390659	     53.77777430	     53.77777430	      1.16758054	    -15.05148312	      1.54250794	      7.66955564	     -3.01761327	     -9.99457285	     15.76904128	     15.76904128	     13.94488880	     -9.70853743	      0.25808666	     -9.57351326	      7.00520464	      2.48066418	     -2.04940869	    -12.14358001	     -7.59143667	     19.79693230	     47.28815976	      0.00000000	      0.00000000	     21.24964892	    -14.36463356	     -5.14759192	     62.27700459	     47.00048492	      0.00000000	      0.00000000
     57.90985714	     -3.95557904	     -4.35344717	     -2.87384278	      0.98965085	      0.93716746	      0.38924984	     33.41990527	     -3.10421555	     -6.31643864	     50.17823257	     50.17823257	      0.33053002	    -14.59476722	     -0.97082513	      6.79574777	     -3.04384615	    -10.44121415	     15.08553571	     15.08553571	     13.94597311	     -9.22435529	     -0.28146803	     -9.82776673	      7.04513460	      2.51594897	     -2.97172559	    -11.93472260	    -13.50714511	     18.20344519	     48.03786681	      0.00000000	      0.00000000	     21.81444280	    -14.35470251	     -6.34300105	     64.62431633	     47.22216080	      0.00000000	      0.00000000
     57.92221429	     -4.12916218	     -4.41996647	     -3.00567566	      0.98863794	      0.93679592	      0.38947125	     33.55003557	     -2.84249404	     -6.67085805	     46.52065444	     46.52065444	      0.49197749	    -13.38097440	     -0.65252461	      6.26296681	     -3.08809846	    -10.63609325	     14.62249672	     14.62249672	     14.20330448	     -8.89663809	     -0.39752412	     -9.74904577	      7.15237988	      2.40034937	     -4.53058241	    -12.18391698	    -13.63901843	     17.77552358	     48.05436323	      0.00000000	      0.00000000	     22.63337025	    -14.65493936	     -6.60431858	     65.60849900	     47.26263648	      0.00000000	      0.00000000
     57.93457143	     -4.15444009	     -4.38628528	     -3.17929768	      0.98780143	      0.93644801	      0.38980648	     33.35222209	     -2.67832207	     -7.02577948	     42.60221802	     42.60221802	      0.59234398	    -11.80197578	     -0.77907803	      5.49204102	     -3.04943495	    -11.15264409	     14.05159149	     14.05159149	     14.44355361	     -8.11322619	     -0.72428514	     -9.92513026	      7.08513459	      2.56479577	     -6.24787482	    -12.38347911	    -13.97823527	     17.82919643	     48.06664340	      0.00000000	      0.00000000	     23.31537558	    -14.73771812	     -7.04408691	     67.59325060	     47.33518045	      0.00000000	      0.00000000
     57.94692857	     -4.39208902	     -4.43399921	     -3.26489616	      0.98690951	      0.93571642	      0.39019067	     33.18032128	     -2.38789159	     -7.46189959	     38.39395516	     38.39395516	      0.61554578	    -10.29076306	     -0.47145820	      5.07129458	     -3.09650070	    -11.35307826	     13.67963098	     13.67963098	     14.69113056	     -7.77295438	     -0.93465305	     -9.74971290	      7.17038472	      2.33095512	     -7.59566653	    -12.59969920	    -14.14629837	     17.70712654	     48.07340467	      0.00000000	      0.00000000	     23.91403461	    -15.07183187	     -7.31712788	     68.53288805	     47.37454929	      0.00000000	      0.00000000
     57.95928571	     -4.41239177	     -4.37555625	     -3.36160641	      0.98631687	      0.93501225	      0.39063336	     32.57747485	     -2.24499458	     -8.05564273	     33.97866432	     33.97866432	      0.25037924	     -8.40484439	     -1.43529719	      4.36031639	     -3.07658519	    -12.04263715	     13.25970373	     13.25970373	     14.94739056	     -6.70704610	     -1.69027900	     -9.91848129	      7.09160474	      2.17246402	     -9.44341791	    -12.75183321	    -14.98652662	     19.24528954	     48.04071885	      0.00000000	      0.00000000	     24.00330590	    -15.28792141	     -8.07289339	     71.11412581	     47.49179610	      0.00000000	      0.00000000
     57.97164286	     -4.68259126	     -4.29940005	     -3.45235161	      0.98566189	      0.93386891	      0.39127787	     32.16194197	     -1.98641300	     -8.48717019	     29.58390261	     29.58390261	      0.10234192	     -6.64112376	     -0.73209446	      3.95822936	     -2.99151092	    -12.20732570	     12.87504141	     12.87504141	     15.20636891	     -6.43271009	     -1.87929049	     -9.65400431	      6.97840380	      2.04933778	    -10.55745296	    -12.79797265	    -15.06724596	     19.03256303	     48.04188445	      0.00000000	      0.00000000	     24.63320738	    -15.53784610	     -8.22050119	     71.76582454	     47.51738073	      0.00000000	      0.00000000
     57.98400000	     -4.68671454	     -4.23341681	     -3.44757683	      0.98542809	      0.93291930	      0.39183035	     31.28987943	     -1.80840143	     -9.25679200	     25.25344398	     25.25344398	      0.02600352	     -4.42887168	      0.07789148	      3.21040932	     -2.90200677	    -12.44501974	     12.43122504	     12.43122504	     15.49638280	     -5.90472386	     -2.18341639	     -9.67865391	      6.92817988	      2.02084808	    -11.78697190	    -12.96016175	    -15.19829693	     18.98021685	     48.03817105	      0.00000000	      0.00000000	     25.12920447	    -15.59873495	     -8.32597606	     72.66817003	     47.54451216	      0.00000000	      0.00000000
     57.99635714	     -4.65996025	     -4.10098974	     -3.46672747	      0.98540206	      0.93180558	      0.39254295	     30.38975106	     -1.67039031	    -10.11912512	     21.27969518	     21.27969518	     -0.09360718	     -2.13120734	      1.17613624	      2.40842815	     -2.75130498	    -12.76911547	     11.97541701	     11.97541701	     15.80519503	     -5.26296889	     -2.58454044	     -9.70435413	      6.75717666	      2.02635622	    -12.97511746	    -13.03621244	    -15.36030255	     19.13957764	     48.02571056	      0.00000000	      0.00000000	     25.51431987	    -15.66642601	     -8.40802121	     73.64514107	     47.57245768	      0.00000000	      0.00000000
     58.00871429	     -4.61242615	     -3.91832438	     -3.47184685	      0.98565854	      0.93048904	      0.39333354	     29.67125581	     -1.70061022	    -11.38120396	     18.21201757	     18.21201757	      0.61954991	      0.82716471	      4.22737490	      1.59184909	     -2.60614295	    -13.43312690	     11.57814915	     11.57814915	     16.07112085	     -4.11039938	     -3.54186325	     -9.77521362	      6.54408334	      2.04361374	    -14.57759358	    -13.00421887	    -15.87955881	     20.87590988	     47.93382846	      0.00000000	      0.00000000	     25.58698588	    -15.81173447	     -8.41409959	     75.24040956	     47.62550365	      0.00000000	      0.00000000
